<?xml version="1.0" encoding="UTF-8" standalone="no"?>
<!DOCTYPE svg PUBLIC "-//W3C//DTD SVG 1.1//EN" "http://www.w3.org/Graphics/SVG/1.1/DTD/svg11.dtd">
<svg width="60px" height="56px" version="1.1" xmlns="http://www.w3.org/2000/svg" xmlns:xlink="http://www.w3.org/1999/xlink" xml:space="preserve" xmlns:serif="http://www.serif.com/" style="fill-rule:evenodd;clip-rule:evenodd;">
    <g id="Key-Frame" serif:id="Key Frame">
        <path d="M60,6.462l0,43.076c0,3.566 -2.881,6.462 -6.429,6.462l-47.142,0c-3.548,0 -6.429,-2.896 -6.429,-6.462l0,-43.076c0,-3.566 2.881,-6.462 6.429,-6.462l47.142,0c3.548,0 6.429,2.896 6.429,6.462Z" style="fill:rgb(133,71,71);stroke:rgb(96,102,108);stroke-width:1.07px;"/>
    </g>
    <g id="Label-Hold" serif:id="Label Hold">
        <path d="M33.644,47.171l-1.072,0l-0,-2.571l1.072,-0c1.302,-0 2.357,-1.055 2.357,-2.358c-0,-1.303 -1.055,-2.357 -2.357,-2.357c-1.304,0 -2.359,1.054 -2.359,2.357l0,1.072l-2.57,0l-0,-1.072c-0,-1.303 -1.055,-2.357 -2.359,-2.357c-1.302,0 -2.357,1.054 -2.357,2.357c0,1.303 1.055,2.358 2.357,2.358l1.072,-0l0,2.571l-1.072,0c-1.302,0 -2.357,1.054 -2.357,2.357c0,1.304 1.055,2.357 2.357,2.357c1.304,0 2.359,-1.053 2.359,-2.357l-0,-1.072l2.57,0l0,1.072c0,1.304 1.055,2.357 2.359,2.357c1.302,0 2.357,-1.053 2.357,-2.357c-0,-1.303 -1.055,-2.357 -2.357,-2.357Zm-1.072,-4.929c-0,-0.591 0.48,-1.071 1.072,-1.071c0.59,-0 1.07,0.48 1.07,1.071c0,0.592 -0.48,1.072 -1.07,1.072l-1.072,0l-0,-1.072Zm-6.216,1.072c-0.59,0 -1.07,-0.48 -1.07,-1.072c-0,-0.591 0.48,-1.071 1.07,-1.071c0.592,-0 1.072,0.48 1.072,1.071l0,1.072l-1.072,0Zm1.072,6.214c0,0.592 -0.48,1.072 -1.072,1.072c-0.59,0 -1.07,-0.48 -1.07,-1.072c-0,-0.591 0.48,-1.072 1.07,-1.072l1.072,0l0,1.072Zm1.287,-2.357l-0,-2.571l2.57,-0l0,2.571l-2.57,0Zm4.929,3.429c-0.592,0 -1.072,-0.48 -1.072,-1.072l-0,-1.072l1.072,0c0.59,0 1.07,0.481 1.07,1.072c0,0.592 -0.48,1.072 -1.07,1.072Z" style="fill:rgb(232,234,237);fill-rule:nonzero;"/>
    </g>
    <g id="Label-Shift" serif:id="Label Shift">
        <path d="M25.561,3.141l8.333,-0c0.384,-0 0.683,0.195 0.884,0.489l3.005,4.511l-3.005,4.505c-0.201,0.294 -0.5,0.495 -0.884,0.495l-8.333,-0c-0.61,-0 -1.11,-0.5 -1.11,-1.112l-0,-7.776c-0,-0.612 0.5,-1.112 1.11,-1.112Zm1.667,6.994l0.784,0.784l1.993,-1.994l1.994,1.994l0.784,-0.784l-1.994,-1.994l1.994,-1.995l-0.784,-0.782l-1.994,1.994l-1.993,-1.994l-0.784,0.782l1.994,1.995l-1.994,1.994Z" style="fill:rgb(232,234,237);fill-rule:nonzero;"/>
    </g>
    <g id="Label-Tap" serif:id="Label Tap">
        <g>
            <path d="M36.227,21l-11.666,0c-0.536,0 -0.957,0.273 -1.236,0.684l-4.209,6.316l4.209,6.307c0.279,0.414 0.7,0.693 1.236,0.693l11.666,0c0.856,0 1.556,-0.7 1.556,-1.556l0,-10.888c0,-0.856 -0.7,-1.556 -1.556,-1.556Zm-2.333,9.793l-1.096,1.096l-2.792,-2.793l-2.792,2.793l-1.098,-1.096l2.793,-2.793l-2.793,-2.793l1.098,-1.096l2.792,2.793l2.792,-2.793l1.096,1.096l-2.791,2.793l2.791,2.793Z" style="fill:rgb(232,234,237);fill-rule:nonzero;"/>
        </g>
    </g>
</svg>
