<?xml version="1.0" encoding="UTF-8" standalone="no"?>
<!DOCTYPE svg PUBLIC "-//W3C//DTD SVG 1.1//EN" "http://www.w3.org/Graphics/SVG/1.1/DTD/svg11.dtd">
<svg width="60px" height="56px" version="1.1" xmlns="http://www.w3.org/2000/svg" xmlns:xlink="http://www.w3.org/1999/xlink" xml:space="preserve" xmlns:serif="http://www.serif.com/" style="fill-rule:evenodd;clip-rule:evenodd;">
    <g id="Key-Frame" serif:id="Key Frame">
        <path id="Type-Held" serif:id="Type Held" d="M60,6.462l0,43.076c0,3.566 -2.881,6.462 -6.429,6.462l-47.142,0c-3.548,0 -6.429,-2.896 -6.429,-6.462l0,-43.076c0,-3.566 2.881,-6.462 6.429,-6.462l47.142,0c3.548,0 6.429,2.896 6.429,6.462Z" style="fill:rgb(133,71,71);stroke:rgb(96,102,108);stroke-width:1.07px;"/>
    </g>
    <g id="Label-Hold" serif:id="Label Hold">
        <g transform="matrix(16.4608,0,0,16.4608,49.8044,52)">
        </g>
        <text x="10.163px" y="52px" style="font-family:'Menlo-Regular', 'Menlo', monospace;font-size:16.461px;fill:rgb(209,214,219);">2x:⇪</text>
    </g>
    <path d="M30,35c-0.96,0 -1.865,-0.182 -2.716,-0.547c-0.851,-0.364 -1.595,-0.866 -2.233,-1.504c-0.638,-0.638 -1.14,-1.382 -1.504,-2.233c-0.365,-0.851 -0.547,-1.756 -0.547,-2.716c0,-0.972 0.182,-1.881 0.547,-2.725c0.364,-0.845 0.866,-1.586 1.504,-2.224c0.638,-0.638 1.382,-1.14 2.233,-1.504c0.851,-0.365 1.756,-0.547 2.716,-0.547c0.972,0 1.881,0.182 2.725,0.547c0.845,0.364 1.586,0.866 2.224,1.504c0.638,0.638 1.14,1.379 1.504,2.224c0.365,0.844 0.547,1.753 0.547,2.725c0,0.96 -0.182,1.865 -0.547,2.716c-0.364,0.851 -0.866,1.595 -1.504,2.233c-0.638,0.638 -1.379,1.14 -2.224,1.504c-0.844,0.365 -1.753,0.547 -2.725,0.547Zm0,-1.367c0.207,-0.207 0.413,-0.593 0.62,-1.158c0.206,-0.565 0.364,-1.182 0.474,-1.85l-2.188,0c0.11,0.668 0.268,1.285 0.474,1.85c0.207,0.565 0.413,0.951 0.62,1.158Zm-1.659,-0.182c-0.17,-0.365 -0.319,-0.784 -0.446,-1.258c-0.128,-0.474 -0.234,-0.997 -0.319,-1.568l-2.607,0c0.352,0.693 0.82,1.285 1.403,1.777c0.584,0.493 1.24,0.842 1.969,1.049Zm3.318,-0c0.729,-0.207 1.385,-0.556 1.969,-1.049c0.583,-0.492 1.051,-1.084 1.403,-1.777l-2.607,0c-0.085,0.571 -0.191,1.094 -0.319,1.568c-0.127,0.474 -0.276,0.893 -0.446,1.258Zm-7.182,-4.138l2.934,-0c-0.024,-0.231 -0.039,-0.459 -0.045,-0.684c-0.006,-0.225 -0.009,-0.447 -0.009,-0.665c-0,-0.219 0.003,-0.435 0.009,-0.648c0.006,-0.212 0.021,-0.422 0.045,-0.628l-2.934,-0c-0.061,0.23 -0.104,0.452 -0.128,0.665c-0.024,0.213 -0.036,0.428 -0.036,0.647c-0,0.219 0.012,0.434 0.036,0.647c0.024,0.213 0.067,0.435 0.128,0.666Zm4.265,-0l2.516,-0c0.024,-0.244 0.039,-0.471 0.045,-0.684c0.006,-0.213 0.01,-0.422 0.01,-0.629c-0,-0.207 -0.004,-0.419 -0.01,-0.638c-0.006,-0.219 -0.021,-0.444 -0.045,-0.674l-2.516,-0c-0.024,0.23 -0.039,0.455 -0.045,0.674c-0.006,0.219 -0.009,0.431 -0.009,0.638c-0,0.207 0.003,0.419 0.009,0.638c0.006,0.219 0.021,0.444 0.045,0.675Zm3.847,-0l2.934,-0c0.061,-0.231 0.104,-0.453 0.128,-0.666c0.024,-0.213 0.037,-0.428 0.037,-0.647c-0,-0.219 -0.013,-0.437 -0.037,-0.656c-0.024,-0.219 -0.067,-0.438 -0.128,-0.656l-2.934,-0c0.024,0.23 0.039,0.458 0.045,0.683c0.006,0.225 0.009,0.447 0.009,0.665c0,0.219 -0.003,0.435 -0.009,0.648c-0.006,0.212 -0.021,0.422 -0.045,0.629Zm-0.165,-3.938l2.607,0c-0.352,-0.693 -0.82,-1.285 -1.403,-1.777c-0.584,-0.493 -1.24,-0.842 -1.969,-1.049c0.17,0.365 0.319,0.784 0.446,1.258c0.128,0.474 0.234,0.997 0.319,1.568Zm-3.518,0l2.188,0c-0.11,-0.668 -0.268,-1.285 -0.474,-1.85c-0.207,-0.565 -0.413,-0.951 -0.62,-1.158c-0.207,0.207 -0.413,0.593 -0.62,1.158c-0.206,0.565 -0.364,1.182 -0.474,1.85Zm-3.937,0l2.607,0c0.085,-0.571 0.191,-1.094 0.319,-1.568c0.127,-0.474 0.276,-0.893 0.446,-1.258c-0.729,0.207 -1.385,0.556 -1.969,1.049c-0.583,0.492 -1.051,1.084 -1.403,1.777Z" style="fill:rgb(209,214,219);fill-rule:nonzero;"/>
</svg>
