<?xml version="1.0" encoding="UTF-8" standalone="no"?>
<!DOCTYPE svg PUBLIC "-//W3C//DTD SVG 1.1//EN" "http://www.w3.org/Graphics/SVG/1.1/DTD/svg11.dtd">
<svg width="60px" height="56px" version="1.1" xmlns="http://www.w3.org/2000/svg" xmlns:xlink="http://www.w3.org/1999/xlink" xml:space="preserve" xmlns:serif="http://www.serif.com/" style="fill-rule:evenodd;clip-rule:evenodd;">
    <g id="Key-Frame" serif:id="Key Frame">
        <path d="M60,6.462l0,43.076c0,3.566 -2.881,6.462 -6.429,6.462l-47.142,0c-3.548,0 -6.429,-2.896 -6.429,-6.462l0,-43.076c0,-3.566 2.881,-6.462 6.429,-6.462l47.142,0c3.548,0 6.429,2.896 6.429,6.462Z" style="fill:rgb(133,71,71);stroke:rgb(96,102,108);stroke-width:1.07px;"/>
    </g>
    <g id="Label-Hold" serif:id="Label Hold">
        <g>
            <path d="M12.253,50.543l5.416,0l0,1.342l-7.16,0l-0,-1.342c0.984,-1.037 1.844,-1.952 2.581,-2.747c0.737,-0.795 1.245,-1.355 1.524,-1.682c0.526,-0.642 0.881,-1.162 1.066,-1.559c0.184,-0.397 0.276,-0.804 0.276,-1.22c0,-0.658 -0.193,-1.173 -0.58,-1.547c-0.387,-0.374 -0.917,-0.561 -1.591,-0.561c-0.479,0 -0.982,0.087 -1.508,0.261c-0.526,0.174 -1.084,0.437 -1.674,0.789l0,-1.61c0.542,-0.258 1.075,-0.453 1.599,-0.584c0.524,-0.132 1.041,-0.198 1.551,-0.198c1.153,0 2.081,0.307 2.783,0.92c0.703,0.613 1.054,1.417 1.054,2.412c0,0.505 -0.117,1.01 -0.351,1.516c-0.234,0.505 -0.615,1.063 -1.141,1.673c-0.295,0.343 -0.722,0.816 -1.283,1.421c-0.56,0.606 -1.414,1.511 -2.562,2.716Z" style="fill:rgb(209,214,219);fill-rule:nonzero;"/>
            <path d="M27.869,43.043l-3.166,4.232l3.474,4.61l-1.682,0l-2.589,-3.544l-2.582,3.544l-1.681,0l3.474,-4.61l-3.166,-4.232l1.61,0l2.345,3.198l2.329,-3.198l1.634,0Z" style="fill:rgb(209,214,219);fill-rule:nonzero;"/>
            <path d="M32.164,43.051l2.463,0l0,2.85l-2.463,0l-0,-2.85Zm-0,5.961l2.463,-0l0,2.873l-2.463,0l-0,-2.873Z" style="fill:rgb(209,214,219);fill-rule:nonzero;"/>
            <path d="M46.633,46.842l0,-3.867l0.988,-0l-2.06,-2.039l-2.038,2.039l0.967,-0l-0,3.867l2.143,-0Zm-2.143,2.837l-0,1.471l2.143,-0l0,-1.471l-2.143,-0Zm-0.736,-0.736l3.615,0l-0,2.942l-3.615,0l0,-2.942Zm0,-1.366l0,-3.772l-2.102,-0l3.909,-3.92l3.93,3.92l-2.122,-0l-0,3.772l-3.615,0Z" style="fill:rgb(209,214,219);fill-rule:nonzero;"/>
        </g>
    </g>
    <g id="Label-Shift" serif:id="Label Shift">
        <g>
            <path d="M19.375,9.095l1.899,-0l0,-1.908l-1.899,-0l0,1.908Zm0,0.954l0,1.092c0,0.55 -0.198,1.021 -0.596,1.413c-0.398,0.391 -0.876,0.587 -1.436,0.587c-0.559,-0 -1.036,-0.197 -1.431,-0.592c-0.394,-0.394 -0.592,-0.873 -0.592,-1.436c0,-0.55 0.198,-1.024 0.592,-1.422c0.395,-0.397 0.864,-0.596 1.408,-0.596l1.101,-0l0,-1.908l-1.101,-0c-0.544,-0 -1.013,-0.199 -1.408,-0.597c-0.394,-0.397 -0.592,-0.874 -0.592,-1.431c0,-0.556 0.198,-1.032 0.592,-1.426c0.395,-0.395 0.872,-0.592 1.431,-0.592c0.56,-0 1.038,0.196 1.436,0.587c0.398,0.391 0.596,0.862 0.596,1.413l0,1.092l1.899,-0l0,-1.092c0,-0.551 0.199,-1.022 0.597,-1.413c0.397,-0.391 0.877,-0.587 1.44,-0.587c0.563,-0 1.04,0.197 1.431,0.592c0.392,0.394 0.587,0.87 0.587,1.426c0,0.557 -0.195,1.034 -0.587,1.431c-0.391,0.398 -0.862,0.597 -1.413,0.597l-1.1,-0l-0,1.908l1.1,-0c0.551,-0 1.022,0.199 1.413,0.596c0.392,0.398 0.587,0.872 0.587,1.422c0,0.563 -0.195,1.042 -0.587,1.436c-0.391,0.395 -0.868,0.592 -1.431,0.592c-0.563,-0 -1.043,-0.196 -1.44,-0.587c-0.398,-0.392 -0.597,-0.863 -0.597,-1.413l0,-1.092l-1.899,0Zm-0.954,-3.816l0,-1.074c0,-0.293 -0.105,-0.546 -0.316,-0.757c-0.211,-0.211 -0.467,-0.316 -0.766,-0.316c-0.288,-0 -0.537,0.105 -0.748,0.316c-0.211,0.211 -0.317,0.464 -0.317,0.757c0,0.294 0.106,0.546 0.317,0.757c0.211,0.211 0.463,0.317 0.757,0.317l1.073,-0Zm0,3.816l-1.073,0c-0.294,0 -0.546,0.106 -0.757,0.317c-0.211,0.211 -0.317,0.46 -0.317,0.747c0,0.3 0.106,0.555 0.317,0.766c0.211,0.211 0.463,0.317 0.757,0.317c0.293,-0 0.546,-0.106 0.757,-0.317c0.211,-0.211 0.316,-0.463 0.316,-0.757l0,-1.073Zm3.808,-3.816l1.082,-0c0.288,-0 0.537,-0.106 0.748,-0.317c0.211,-0.211 0.316,-0.463 0.316,-0.757c0,-0.293 -0.104,-0.546 -0.312,-0.757c-0.208,-0.211 -0.46,-0.316 -0.756,-0.316c-0.297,-0 -0.551,0.105 -0.762,0.316c-0.211,0.211 -0.316,0.464 -0.316,0.757l-0,1.074Zm-0,3.816l-0,1.073c-0,0.294 0.105,0.546 0.316,0.757c0.211,0.211 0.465,0.317 0.762,0.317c0.296,-0 0.548,-0.106 0.756,-0.317c0.208,-0.211 0.312,-0.466 0.312,-0.766c0,-0.287 -0.105,-0.536 -0.316,-0.747c-0.211,-0.211 -0.46,-0.317 -0.748,-0.317l-1.082,0Z" style="fill:rgb(209,214,219);fill-rule:nonzero;"/>
            <path d="M29.917,4.594l1.978,-0l-0,2.288l-1.978,0l-0,-2.288Zm-0,4.786l1.978,0l-0,2.308l-1.978,0l-0,-2.308Z" style="fill:rgb(209,214,219);fill-rule:nonzero;"/>
            <path d="M41.195,5.809l3.485,4.663l-1.91,0l-4.031,-4.663l2.456,0Z" style="fill:rgb(209,214,219);fill-rule:nonzero;"/>
        </g>
    </g>
    <g id="Label-Tap" serif:id="Label Tap">
        <g transform="matrix(18.8632,0,0,18.8632,36.4972,33.4631)">
        </g>
        <text x="25.141px" y="33.463px" style="font-family:'Menlo-Regular', 'Menlo', monospace;font-size:18.863px;fill:rgb(209,214,219);">A</text>
    </g>
</svg>
